{
	"asset":{
		"generator":"Khronos glTF Blender I/O v3.6.27",
		"version":"2.0"
	},
	"scene":0,
	"scenes":[
		{
			"name":"Scene",
			"nodes":[
				0
			]
		}
	],
	"nodes":[
		{
			"mesh":0,
			"name":"Azadi Tower - Iran H003440 file stl free download 3D Model for ",
			"rotation":[
				0,
				-0.7107135653495789,
				0,
				0.7034814953804016
			],
			"scale":[
				0.1288912296295166,
				0.1288912445306778,
				0.1288912296295166
			],
			"translation":[
				-0.051482390612363815,
				15.520730972290039,
				-0.047262560576200485
			]
		}
	],
	"meshes":[
		{
			"name":"Azadi Tower - Iran H003440 file stl free download 3D Model for ",
			"primitives":[
				{
					"attributes":{
						"POSITION":0,
						"NORMAL":1
					},
					"indices":2
				}
			]
		}
	],
	"accessors":[
		{
			"bufferView":0,
			"componentType":5126,
			"count":12370,
			"max":[
				178.98155212402344,
				128.36782836914062,
				107.40354919433594
			],
			"min":[
				-178.41358947753906,
				-118.32048797607422,
				-105.81668090820312
			],
			"type":"VEC3"
		},
		{
			"bufferView":1,
			"componentType":5126,
			"count":12370,
			"type":"VEC3"
		},
		{
			"bufferView":2,
			"componentType":5123,
			"count":19446,
			"type":"SCALAR"
		}
	],
	"bufferViews":[
		{
			"buffer":0,
			"byteLength":148440,
			"byteOffset":0,
			"target":34962
		},
		{
			"buffer":0,
			"byteLength":148440,
			"byteOffset":148440,
			"target":34962
		},
		{
			"buffer":0,
			"byteLength":38892,
			"byteOffset":296880,
			"target":34963
		}
	],
	"buffers":[
		{
			"byteLength":335772,
			"uri":"data:application/octet-stream;base64,"
		}
	]
}
