<svg width="356" height="83" viewBox="0 0 356 83" fill="none" xmlns="http://www.w3.org/2000/svg">
<g filter="url(#filter0_b_44_218)">
<rect width="356" height="83" rx="41.5" fill="white" fill-opacity="0.07"/>
<rect x="0.441594" y="0.441594" width="355.117" height="82.1168" rx="41.0584" stroke="white" stroke-opacity="0.12" stroke-width="0.883189"/>
</g>
<path fill-rule="evenodd" clip-rule="evenodd" d="M69.6301 32.3961C63.7593 26.5346 54.2408 26.5346 48.3699 32.3961L47.5944 33.1704C47.3009 33.4635 47.3009 33.9386 47.5944 34.2317L50.0114 36.6449C50.1582 36.7914 50.3962 36.7914 50.5429 36.6449L51.5842 35.6053C55.6798 31.5161 62.3202 31.5161 66.4158 35.6053L67.3881 36.576C67.5349 36.7226 67.7729 36.7226 67.9196 36.576L70.3366 34.1629C70.6302 33.8698 70.6302 33.3946 70.3366 33.1015L69.6301 32.3961ZM76.7798 39.5345L74.6287 37.3868C74.3352 37.0937 73.8592 37.0937 73.5657 37.3868L66.6815 44.26C66.6081 44.3333 66.4891 44.3333 66.4157 44.26L59.5314 37.3866L59.5314 37.3866C59.2378 37.0935 58.7619 37.0936 58.4684 37.3866L51.5844 44.26C51.511 44.3333 51.392 44.3333 51.3186 44.26L44.4343 37.3866C44.1408 37.0936 43.6648 37.0936 43.3713 37.3866L41.2202 39.5344C40.9266 39.8274 40.9266 40.3026 41.2202 40.5957L50.9201 50.2802C51.2136 50.5732 51.6896 50.5732 51.9831 50.2802L58.8672 43.4069C58.9406 43.3336 59.0596 43.3336 59.1329 43.4069L66.0172 50.2802C66.3107 50.5732 66.7866 50.5732 67.0802 50.2802L76.7798 40.5958C77.0734 40.3027 77.0734 39.8276 76.7798 39.5345Z" fill="white"/>
<path d="M100.877 46.7637H107.176V49H98.5039V35.2012H100.877V46.7637ZM118.709 43.9219C118.709 44.2214 118.689 44.5143 118.65 44.8008H110.389C110.571 45.5365 110.955 46.1257 111.541 46.5684C112.133 47.0046 112.843 47.2227 113.67 47.2227C114.308 47.2227 114.9 47.0892 115.447 46.8223C116.001 46.5553 116.43 46.2201 116.736 45.8164L118.25 47.1152C117.723 47.7793 117.052 48.3001 116.238 48.6777C115.431 49.0553 114.555 49.2441 113.611 49.2441C111.997 49.2441 110.652 48.7298 109.578 47.7012C108.51 46.6725 107.977 45.3932 107.977 43.8633C107.977 42.8737 108.211 41.9753 108.68 41.168C109.148 40.3542 109.793 39.7161 110.613 39.2539C111.44 38.7917 112.355 38.5605 113.357 38.5605C114.887 38.5605 116.16 39.0716 117.176 40.0938C118.198 41.1094 118.709 42.3854 118.709 43.9219ZM113.338 40.582C112.615 40.582 111.984 40.8001 111.443 41.2363C110.91 41.6725 110.551 42.2487 110.369 42.9648H116.316C116.147 42.2487 115.789 41.6725 115.242 41.2363C114.702 40.8001 114.067 40.582 113.338 40.582ZM126.277 40.8359H123.396V45.6602C123.396 46.1289 123.523 46.4837 123.777 46.7246C124.038 46.959 124.406 47.0762 124.881 47.0762C125.33 47.0762 125.796 46.959 126.277 46.7246V48.8242C125.724 49.1042 125.102 49.2441 124.412 49.2441C123.338 49.2441 122.527 48.9609 121.98 48.3945C121.434 47.8281 121.16 47.0371 121.16 46.0215V40.8359H119.432V38.8047H121.16V36.1582H123.396V38.8047H126.277V40.8359ZM127.957 40.4648L129.354 35.2012H132L129.9 40.4648H127.957ZM136.111 49.2441C134.471 49.2441 133.058 48.7233 131.873 47.6816L133.035 46.0996C133.875 46.9004 134.887 47.3008 136.072 47.3008C136.665 47.3008 137.15 47.2031 137.527 47.0078C137.905 46.806 138.094 46.5293 138.094 46.1777C138.094 46.0215 138.051 45.8815 137.967 45.7578C137.889 45.6341 137.791 45.5299 137.674 45.4453C137.563 45.3607 137.397 45.2793 137.176 45.2012C136.954 45.123 136.759 45.0612 136.59 45.0156C136.427 44.9701 136.196 44.9115 135.896 44.8398C135.597 44.7682 135.353 44.7096 135.164 44.6641C134.975 44.612 134.738 44.5371 134.451 44.4395C134.165 44.3418 133.927 44.2441 133.738 44.1465C133.556 44.0488 133.357 43.9186 133.143 43.7559C132.928 43.5931 132.758 43.4173 132.635 43.2285C132.511 43.0397 132.407 42.8151 132.322 42.5547C132.238 42.2943 132.195 42.0078 132.195 41.6953C132.195 41.0182 132.384 40.4388 132.762 39.957C133.139 39.4753 133.628 39.1237 134.227 38.9023C134.826 38.6745 135.503 38.5605 136.258 38.5605C137.749 38.5605 139.041 39.013 140.135 39.918L138.953 41.5C138.172 40.8359 137.286 40.5039 136.297 40.5039C135.77 40.5039 135.333 40.5918 134.988 40.7676C134.65 40.9434 134.48 41.2005 134.48 41.5391C134.48 41.6693 134.503 41.7865 134.549 41.8906C134.594 41.9948 134.673 42.0892 134.783 42.1738C134.9 42.2585 135.011 42.3301 135.115 42.3887C135.219 42.4473 135.372 42.5091 135.574 42.5742C135.783 42.6328 135.955 42.6816 136.092 42.7207C136.235 42.7533 136.437 42.7988 136.697 42.8574C136.99 42.9225 137.231 42.9811 137.42 43.0332C137.615 43.0788 137.853 43.1504 138.133 43.248C138.419 43.3392 138.657 43.4368 138.846 43.541C139.035 43.6387 139.233 43.7689 139.441 43.9316C139.65 44.0879 139.816 44.2604 139.939 44.4492C140.07 44.6315 140.174 44.8529 140.252 45.1133C140.337 45.3737 140.379 45.6569 140.379 45.9629C140.379 46.6465 140.187 47.2422 139.803 47.75C139.419 48.2513 138.908 48.6257 138.27 48.873C137.638 49.1204 136.919 49.2441 136.111 49.2441ZM149.568 46.7637H156.473V49H147.195V35.2012H156.375V37.4375H149.568V40.9434H155.711V43.1797H149.568V46.7637ZM168.387 49H165.652L163.074 45.3965L160.486 49H157.771L161.551 43.8828L157.83 38.8047H160.574L163.094 42.3594L165.613 38.8047H168.328L164.607 43.8828L168.387 49ZM175.916 38.5605C176.854 38.5605 177.706 38.7949 178.475 39.2637C179.243 39.7259 179.845 40.3672 180.281 41.1875C180.717 42.0013 180.936 42.9062 180.936 43.9023C180.936 44.8984 180.717 45.8066 180.281 46.627C179.845 47.4408 179.243 48.082 178.475 48.5508C177.706 49.013 176.854 49.2441 175.916 49.2441C175.174 49.2441 174.497 49.0944 173.885 48.7949C173.273 48.4954 172.752 48.069 172.322 47.5156V52.7988H170.076V38.8047H172.322V40.2793C172.745 39.7324 173.263 39.3092 173.875 39.0098C174.493 38.7103 175.174 38.5605 175.916 38.5605ZM173.221 46.168C173.826 46.7734 174.578 47.0762 175.477 47.0762C176.375 47.0762 177.124 46.7734 177.723 46.168C178.322 45.556 178.621 44.8008 178.621 43.9023C178.621 43.0039 178.322 42.2487 177.723 41.6367C177.124 41.0247 176.375 40.7188 175.477 40.7188C174.578 40.7188 173.826 41.0247 173.221 41.6367C172.622 42.2487 172.322 43.0039 172.322 43.9023C172.322 44.8008 172.622 45.556 173.221 46.168ZM183.006 49V34.5957H185.252V49H183.006ZM192.752 49.2441C191.196 49.2441 189.897 48.7331 188.855 47.7109C187.814 46.6888 187.293 45.4193 187.293 43.9023C187.293 42.3854 187.814 41.1159 188.855 40.0938C189.897 39.0716 191.196 38.5605 192.752 38.5605C193.768 38.5605 194.692 38.7949 195.525 39.2637C196.365 39.7259 197.023 40.3672 197.498 41.1875C197.973 42.0013 198.211 42.9062 198.211 43.9023C198.211 44.8984 197.973 45.8066 197.498 46.627C197.023 47.4408 196.365 48.082 195.525 48.5508C194.692 49.013 193.768 49.2441 192.752 49.2441ZM190.496 46.168C191.102 46.7734 191.854 47.0762 192.752 47.0762C193.65 47.0762 194.396 46.7734 194.988 46.168C195.587 45.556 195.887 44.8008 195.887 43.9023C195.887 42.9974 195.587 42.2422 194.988 41.6367C194.396 41.0247 193.65 40.7188 192.752 40.7188C191.854 40.7188 191.102 41.0247 190.496 41.6367C189.891 42.2487 189.588 43.0039 189.588 43.9023C189.588 44.8008 189.891 45.556 190.496 46.168ZM205.652 38.6387H206.033V40.9434H205.652C204.663 40.9434 203.885 41.2233 203.318 41.7832C202.758 42.3366 202.479 43.0885 202.479 44.0391V49H200.232V38.8047H202.479V40.2988C203.292 39.1921 204.35 38.6387 205.652 38.6387ZM217.459 43.9219C217.459 44.2214 217.439 44.5143 217.4 44.8008H209.139C209.321 45.5365 209.705 46.1257 210.291 46.5684C210.883 47.0046 211.593 47.2227 212.42 47.2227C213.058 47.2227 213.65 47.0892 214.197 46.8223C214.751 46.5553 215.18 46.2201 215.486 45.8164L217 47.1152C216.473 47.7793 215.802 48.3001 214.988 48.6777C214.181 49.0553 213.305 49.2441 212.361 49.2441C210.747 49.2441 209.402 48.7298 208.328 47.7012C207.26 46.6725 206.727 45.3932 206.727 43.8633C206.727 42.8737 206.961 41.9753 207.43 41.168C207.898 40.3542 208.543 39.7161 209.363 39.2539C210.19 38.7917 211.105 38.5605 212.107 38.5605C213.637 38.5605 214.91 39.0716 215.926 40.0938C216.948 41.1094 217.459 42.3854 217.459 43.9219ZM212.088 40.582C211.365 40.582 210.734 40.8001 210.193 41.2363C209.66 41.6725 209.301 42.2487 209.119 42.9648H215.066C214.897 42.2487 214.539 41.6725 213.992 41.2363C213.452 40.8001 212.817 40.582 212.088 40.582ZM230.281 40.8359H227.4V45.6602C227.4 46.1289 227.527 46.4837 227.781 46.7246C228.042 46.959 228.41 47.0762 228.885 47.0762C229.334 47.0762 229.799 46.959 230.281 46.7246V48.8242C229.728 49.1042 229.106 49.2441 228.416 49.2441C227.342 49.2441 226.531 48.9609 225.984 48.3945C225.438 47.8281 225.164 47.0371 225.164 46.0215V40.8359H223.436V38.8047H225.164V36.1582H227.4V38.8047H230.281V40.8359ZM237.986 38.5605C239.197 38.5605 240.171 38.9284 240.906 39.6641C241.648 40.3997 242.02 41.373 242.02 42.584V49H239.783V43.3164C239.783 42.5352 239.552 41.9069 239.09 41.4316C238.628 40.9564 238.012 40.7188 237.244 40.7188C236.437 40.7188 235.786 40.9596 235.291 41.4414C234.796 41.9232 234.549 42.5612 234.549 43.3555V49H232.303V34.5957H234.549V40.1816C235.382 39.1009 236.528 38.5605 237.986 38.5605ZM254.627 43.9219C254.627 44.2214 254.607 44.5143 254.568 44.8008H246.307C246.489 45.5365 246.873 46.1257 247.459 46.5684C248.051 47.0046 248.761 47.2227 249.588 47.2227C250.226 47.2227 250.818 47.0892 251.365 46.8223C251.919 46.5553 252.348 46.2201 252.654 45.8164L254.168 47.1152C253.641 47.7793 252.97 48.3001 252.156 48.6777C251.349 49.0553 250.473 49.2441 249.529 49.2441C247.915 49.2441 246.57 48.7298 245.496 47.7012C244.428 46.6725 243.895 45.3932 243.895 43.8633C243.895 42.8737 244.129 41.9753 244.598 41.168C245.066 40.3542 245.711 39.7161 246.531 39.2539C247.358 38.7917 248.273 38.5605 249.275 38.5605C250.805 38.5605 252.078 39.0716 253.094 40.0938C254.116 41.1094 254.627 42.3854 254.627 43.9219ZM249.256 40.582C248.533 40.582 247.902 40.8001 247.361 41.2363C246.827 41.6725 246.469 42.2487 246.287 42.9648H252.234C252.065 42.2487 251.707 41.6725 251.16 41.2363C250.62 40.8001 249.985 40.582 249.256 40.582ZM274.627 38.8047H277.049L273.387 49H271.072L268.65 41.4805L266.209 49H263.885L260.232 38.8047H262.732L265.105 46.1777L267.527 38.8047H269.812L272.244 46.1973L274.627 38.8047ZM282.869 49.2441C281.313 49.2441 280.014 48.7331 278.973 47.7109C277.931 46.6888 277.41 45.4193 277.41 43.9023C277.41 42.3854 277.931 41.1159 278.973 40.0938C280.014 39.0716 281.313 38.5605 282.869 38.5605C283.885 38.5605 284.809 38.7949 285.643 39.2637C286.482 39.7259 287.14 40.3672 287.615 41.1875C288.09 42.0013 288.328 42.9062 288.328 43.9023C288.328 44.8984 288.09 45.8066 287.615 46.627C287.14 47.4408 286.482 48.082 285.643 48.5508C284.809 49.013 283.885 49.2441 282.869 49.2441ZM280.613 46.168C281.219 46.7734 281.971 47.0762 282.869 47.0762C283.768 47.0762 284.513 46.7734 285.105 46.168C285.704 45.556 286.004 44.8008 286.004 43.9023C286.004 42.9974 285.704 42.2422 285.105 41.6367C284.513 41.0247 283.768 40.7188 282.869 40.7188C281.971 40.7188 281.219 41.0247 280.613 41.6367C280.008 42.2487 279.705 43.0039 279.705 43.9023C279.705 44.8008 280.008 45.556 280.613 46.168ZM295.77 38.6387H296.15V40.9434H295.77C294.78 40.9434 294.002 41.2233 293.436 41.7832C292.876 42.3366 292.596 43.0885 292.596 44.0391V49H290.35V38.8047H292.596V40.2988C293.41 39.1921 294.467 38.6387 295.77 38.6387ZM297.811 49V34.5957H300.057V49H297.811ZM310.73 34.5957H312.977V49H310.73V47.5352C309.832 48.6745 308.641 49.2441 307.156 49.2441C306.212 49.2441 305.356 49.013 304.588 48.5508C303.82 48.082 303.217 47.4408 302.781 46.627C302.352 45.8132 302.137 44.9049 302.137 43.9023C302.137 42.8997 302.352 41.9915 302.781 41.1777C303.217 40.3639 303.82 39.7259 304.588 39.2637C305.356 38.7949 306.212 38.5605 307.156 38.5605C308.647 38.5605 309.839 39.127 310.73 40.2598V34.5957ZM307.596 47.0762C308.494 47.0762 309.24 46.7734 309.832 46.168C310.431 45.556 310.73 44.8008 310.73 43.9023C310.73 42.9974 310.431 42.2422 309.832 41.6367C309.24 41.0247 308.494 40.7188 307.596 40.7188C306.691 40.7188 305.936 41.0247 305.33 41.6367C304.731 42.2422 304.432 42.9974 304.432 43.9023C304.432 44.8008 304.731 45.556 305.33 46.168C305.936 46.7734 306.691 47.0762 307.596 47.0762Z" fill="white"/>
<defs>
<filter id="filter0_b_44_218" x="-8.8" y="-8.8" width="373.6" height="100.6" filterUnits="userSpaceOnUse" color-interpolation-filters="sRGB">
<feFlood flood-opacity="0" result="BackgroundImageFix"/>
<feGaussianBlur in="BackgroundImageFix" stdDeviation="4.4"/>
<feComposite in2="SourceAlpha" operator="in" result="effect1_backgroundBlur_44_218"/>
<feBlend mode="normal" in="SourceGraphic" in2="effect1_backgroundBlur_44_218" result="shape"/>
</filter>
</defs>
</svg>
