<svg width="274" height="28" viewBox="0 0 274 28" fill="none" xmlns="http://www.w3.org/2000/svg">
<path fill-rule="evenodd" clip-rule="evenodd" d="M28.6301 4.39611C22.7593 -1.46537 13.2408 -1.46537 7.36994 4.39611L6.59442 5.17039C6.30088 5.46346 6.30088 5.93863 6.59442 6.2317L9.01144 8.64487C9.15821 8.7914 9.39617 8.7914 9.54294 8.64487L10.5842 7.60526C14.6798 3.51614 21.3202 3.51614 25.4158 7.60526L26.3881 8.57602C26.5349 8.72256 26.7729 8.72256 26.9196 8.57602L29.3366 6.16286C29.6302 5.86979 29.6302 5.39462 29.3366 5.10155L28.6301 4.39611ZM35.7798 11.5345L33.6287 9.38676C33.3352 9.09369 32.8592 9.09369 32.5657 9.38676L25.6815 16.26C25.6081 16.3333 25.4891 16.3333 25.4157 16.26L18.5314 9.38663L18.5314 9.38661C18.2378 9.09355 17.7619 9.09356 17.4684 9.38664L10.5844 16.26C10.511 16.3333 10.392 16.3333 10.3186 16.26L3.43431 9.38664C3.14077 9.09356 2.66485 9.09356 2.3713 9.38664L0.220156 11.5344C-0.0733853 11.8274 -0.0733853 12.3026 0.220156 12.5957L9.92009 22.2802C10.2136 22.5732 10.6896 22.5732 10.9831 22.2802L17.8672 15.4069C17.9406 15.3336 18.0596 15.3336 18.1329 15.4069L25.0172 22.2802C25.3107 22.5732 25.7866 22.5732 26.0802 22.2802L35.7798 12.5958C36.0734 12.3027 36.0734 11.8276 35.7798 11.5345Z" fill="white"/>
<path d="M59.877 18.7637H66.1758V21H57.5039V7.20117H59.877V18.7637ZM77.709 15.9219C77.709 16.2214 77.6895 16.5143 77.6504 16.8008H69.3887C69.571 17.5365 69.9551 18.1257 70.541 18.5684C71.1335 19.0046 71.8431 19.2227 72.6699 19.2227C73.3079 19.2227 73.9004 19.0892 74.4473 18.8223C75.0007 18.5553 75.4303 18.2201 75.7363 17.8164L77.25 19.1152C76.7227 19.7793 76.0521 20.3001 75.2383 20.6777C74.431 21.0553 73.5553 21.2441 72.6113 21.2441C70.9967 21.2441 69.6523 20.7298 68.5781 19.7012C67.5104 18.6725 66.9766 17.3932 66.9766 15.8633C66.9766 14.8737 67.2109 13.9753 67.6797 13.168C68.1484 12.3542 68.793 11.7161 69.6133 11.2539C70.4401 10.7917 71.3548 10.5605 72.3574 10.5605C73.8874 10.5605 75.1602 11.0716 76.1758 12.0938C77.1979 13.1094 77.709 14.3854 77.709 15.9219ZM72.3379 12.582C71.6152 12.582 70.9837 12.8001 70.4434 13.2363C69.9095 13.6725 69.5514 14.2487 69.3691 14.9648H75.3164C75.1471 14.2487 74.7891 13.6725 74.2422 13.2363C73.7018 12.8001 73.0671 12.582 72.3379 12.582ZM85.2773 12.8359H82.3965V17.6602C82.3965 18.1289 82.5234 18.4837 82.7773 18.7246C83.0378 18.959 83.4056 19.0762 83.8809 19.0762C84.3301 19.0762 84.7956 18.959 85.2773 18.7246V20.8242C84.724 21.1042 84.1022 21.2441 83.4121 21.2441C82.3379 21.2441 81.5273 20.9609 80.9805 20.3945C80.4336 19.8281 80.1602 19.0371 80.1602 18.0215V12.8359H78.4316V10.8047H80.1602V8.1582H82.3965V10.8047H85.2773V12.8359ZM86.957 12.4648L88.3535 7.20117H91L88.9004 12.4648H86.957ZM95.1113 21.2441C93.4707 21.2441 92.0579 20.7233 90.873 19.6816L92.0352 18.0996C92.875 18.9004 93.8874 19.3008 95.0723 19.3008C95.6647 19.3008 96.1497 19.2031 96.5273 19.0078C96.9049 18.806 97.0938 18.5293 97.0938 18.1777C97.0938 18.0215 97.0514 17.8815 96.9668 17.7578C96.8887 17.6341 96.791 17.5299 96.6738 17.4453C96.5632 17.3607 96.3971 17.2793 96.1758 17.2012C95.9544 17.123 95.7591 17.0612 95.5898 17.0156C95.4271 16.9701 95.196 16.9115 94.8965 16.8398C94.597 16.7682 94.3529 16.7096 94.1641 16.6641C93.9753 16.612 93.7376 16.5371 93.4512 16.4395C93.1647 16.3418 92.9271 16.2441 92.7383 16.1465C92.556 16.0488 92.3574 15.9186 92.1426 15.7559C91.9277 15.5931 91.7585 15.4173 91.6348 15.2285C91.5111 15.0397 91.4069 14.8151 91.3223 14.5547C91.2376 14.2943 91.1953 14.0078 91.1953 13.6953C91.1953 13.0182 91.3841 12.4388 91.7617 11.957C92.1393 11.4753 92.6276 11.1237 93.2266 10.9023C93.8255 10.6745 94.5026 10.5605 95.2578 10.5605C96.7487 10.5605 98.041 11.013 99.1348 11.918L97.9531 13.5C97.1719 12.8359 96.2865 12.5039 95.2969 12.5039C94.7695 12.5039 94.3333 12.5918 93.9883 12.7676C93.6497 12.9434 93.4805 13.2005 93.4805 13.5391C93.4805 13.6693 93.5033 13.7865 93.5488 13.8906C93.5944 13.9948 93.6725 14.0892 93.7832 14.1738C93.9004 14.2585 94.0111 14.3301 94.1152 14.3887C94.2194 14.4473 94.3724 14.5091 94.5742 14.5742C94.7826 14.6328 94.9551 14.6816 95.0918 14.7207C95.235 14.7533 95.4368 14.7988 95.6973 14.8574C95.9902 14.9225 96.2311 14.9811 96.4199 15.0332C96.6152 15.0788 96.8529 15.1504 97.1328 15.248C97.4193 15.3392 97.6569 15.4368 97.8457 15.541C98.0345 15.6387 98.2331 15.7689 98.4414 15.9316C98.6497 16.0879 98.8158 16.2604 98.9395 16.4492C99.0697 16.6315 99.1738 16.8529 99.252 17.1133C99.3366 17.3737 99.3789 17.6569 99.3789 17.9629C99.3789 18.6465 99.1868 19.2422 98.8027 19.75C98.4186 20.2513 97.9076 20.6257 97.2695 20.873C96.638 21.1204 95.9186 21.2441 95.1113 21.2441ZM108.568 18.7637H115.473V21H106.195V7.20117H115.375V9.4375H108.568V12.9434H114.711V15.1797H108.568V18.7637ZM127.387 21H124.652L122.074 17.3965L119.486 21H116.771L120.551 15.8828L116.83 10.8047H119.574L122.094 14.3594L124.613 10.8047H127.328L123.607 15.8828L127.387 21ZM134.916 10.5605C135.854 10.5605 136.706 10.7949 137.475 11.2637C138.243 11.7259 138.845 12.3672 139.281 13.1875C139.717 14.0013 139.936 14.9062 139.936 15.9023C139.936 16.8984 139.717 17.8066 139.281 18.627C138.845 19.4408 138.243 20.082 137.475 20.5508C136.706 21.013 135.854 21.2441 134.916 21.2441C134.174 21.2441 133.497 21.0944 132.885 20.7949C132.273 20.4954 131.752 20.069 131.322 19.5156V24.7988H129.076V10.8047H131.322V12.2793C131.745 11.7324 132.263 11.3092 132.875 11.0098C133.493 10.7103 134.174 10.5605 134.916 10.5605ZM132.221 18.168C132.826 18.7734 133.578 19.0762 134.477 19.0762C135.375 19.0762 136.124 18.7734 136.723 18.168C137.322 17.556 137.621 16.8008 137.621 15.9023C137.621 15.0039 137.322 14.2487 136.723 13.6367C136.124 13.0247 135.375 12.7188 134.477 12.7188C133.578 12.7188 132.826 13.0247 132.221 13.6367C131.622 14.2487 131.322 15.0039 131.322 15.9023C131.322 16.8008 131.622 17.556 132.221 18.168ZM142.006 21V6.5957H144.252V21H142.006ZM151.752 21.2441C150.196 21.2441 148.897 20.7331 147.855 19.7109C146.814 18.6888 146.293 17.4193 146.293 15.9023C146.293 14.3854 146.814 13.1159 147.855 12.0938C148.897 11.0716 150.196 10.5605 151.752 10.5605C152.768 10.5605 153.692 10.7949 154.525 11.2637C155.365 11.7259 156.023 12.3672 156.498 13.1875C156.973 14.0013 157.211 14.9062 157.211 15.9023C157.211 16.8984 156.973 17.8066 156.498 18.627C156.023 19.4408 155.365 20.082 154.525 20.5508C153.692 21.013 152.768 21.2441 151.752 21.2441ZM149.496 18.168C150.102 18.7734 150.854 19.0762 151.752 19.0762C152.65 19.0762 153.396 18.7734 153.988 18.168C154.587 17.556 154.887 16.8008 154.887 15.9023C154.887 14.9974 154.587 14.2422 153.988 13.6367C153.396 13.0247 152.65 12.7188 151.752 12.7188C150.854 12.7188 150.102 13.0247 149.496 13.6367C148.891 14.2487 148.588 15.0039 148.588 15.9023C148.588 16.8008 148.891 17.556 149.496 18.168ZM164.652 10.6387H165.033V12.9434H164.652C163.663 12.9434 162.885 13.2233 162.318 13.7832C161.758 14.3366 161.479 15.0885 161.479 16.0391V21H159.232V10.8047H161.479V12.2988C162.292 11.1921 163.35 10.6387 164.652 10.6387ZM176.459 15.9219C176.459 16.2214 176.439 16.5143 176.4 16.8008H168.139C168.321 17.5365 168.705 18.1257 169.291 18.5684C169.883 19.0046 170.593 19.2227 171.42 19.2227C172.058 19.2227 172.65 19.0892 173.197 18.8223C173.751 18.5553 174.18 18.2201 174.486 17.8164L176 19.1152C175.473 19.7793 174.802 20.3001 173.988 20.6777C173.181 21.0553 172.305 21.2441 171.361 21.2441C169.747 21.2441 168.402 20.7298 167.328 19.7012C166.26 18.6725 165.727 17.3932 165.727 15.8633C165.727 14.8737 165.961 13.9753 166.43 13.168C166.898 12.3542 167.543 11.7161 168.363 11.2539C169.19 10.7917 170.105 10.5605 171.107 10.5605C172.637 10.5605 173.91 11.0716 174.926 12.0938C175.948 13.1094 176.459 14.3854 176.459 15.9219ZM171.088 12.582C170.365 12.582 169.734 12.8001 169.193 13.2363C168.66 13.6725 168.301 14.2487 168.119 14.9648H174.066C173.897 14.2487 173.539 13.6725 172.992 13.2363C172.452 12.8001 171.817 12.582 171.088 12.582ZM189.281 12.8359H186.4V17.6602C186.4 18.1289 186.527 18.4837 186.781 18.7246C187.042 18.959 187.41 19.0762 187.885 19.0762C188.334 19.0762 188.799 18.959 189.281 18.7246V20.8242C188.728 21.1042 188.106 21.2441 187.416 21.2441C186.342 21.2441 185.531 20.9609 184.984 20.3945C184.438 19.8281 184.164 19.0371 184.164 18.0215V12.8359H182.436V10.8047H184.164V8.1582H186.4V10.8047H189.281V12.8359ZM196.986 10.5605C198.197 10.5605 199.171 10.9284 199.906 11.6641C200.648 12.3997 201.02 13.373 201.02 14.584V21H198.783V15.3164C198.783 14.5352 198.552 13.9069 198.09 13.4316C197.628 12.9564 197.012 12.7188 196.244 12.7188C195.437 12.7188 194.786 12.9596 194.291 13.4414C193.796 13.9232 193.549 14.5612 193.549 15.3555V21H191.303V6.5957H193.549V12.1816C194.382 11.1009 195.528 10.5605 196.986 10.5605ZM213.627 15.9219C213.627 16.2214 213.607 16.5143 213.568 16.8008H205.307C205.489 17.5365 205.873 18.1257 206.459 18.5684C207.051 19.0046 207.761 19.2227 208.588 19.2227C209.226 19.2227 209.818 19.0892 210.365 18.8223C210.919 18.5553 211.348 18.2201 211.654 17.8164L213.168 19.1152C212.641 19.7793 211.97 20.3001 211.156 20.6777C210.349 21.0553 209.473 21.2441 208.529 21.2441C206.915 21.2441 205.57 20.7298 204.496 19.7012C203.428 18.6725 202.895 17.3932 202.895 15.8633C202.895 14.8737 203.129 13.9753 203.598 13.168C204.066 12.3542 204.711 11.7161 205.531 11.2539C206.358 10.7917 207.273 10.5605 208.275 10.5605C209.805 10.5605 211.078 11.0716 212.094 12.0938C213.116 13.1094 213.627 14.3854 213.627 15.9219ZM208.256 12.582C207.533 12.582 206.902 12.8001 206.361 13.2363C205.827 13.6725 205.469 14.2487 205.287 14.9648H211.234C211.065 14.2487 210.707 13.6725 210.16 13.2363C209.62 12.8001 208.985 12.582 208.256 12.582ZM233.627 10.8047H236.049L232.387 21H230.072L227.65 13.4805L225.209 21H222.885L219.232 10.8047H221.732L224.105 18.1777L226.527 10.8047H228.812L231.244 18.1973L233.627 10.8047ZM241.869 21.2441C240.313 21.2441 239.014 20.7331 237.973 19.7109C236.931 18.6888 236.41 17.4193 236.41 15.9023C236.41 14.3854 236.931 13.1159 237.973 12.0938C239.014 11.0716 240.313 10.5605 241.869 10.5605C242.885 10.5605 243.809 10.7949 244.643 11.2637C245.482 11.7259 246.14 12.3672 246.615 13.1875C247.09 14.0013 247.328 14.9062 247.328 15.9023C247.328 16.8984 247.09 17.8066 246.615 18.627C246.14 19.4408 245.482 20.082 244.643 20.5508C243.809 21.013 242.885 21.2441 241.869 21.2441ZM239.613 18.168C240.219 18.7734 240.971 19.0762 241.869 19.0762C242.768 19.0762 243.513 18.7734 244.105 18.168C244.704 17.556 245.004 16.8008 245.004 15.9023C245.004 14.9974 244.704 14.2422 244.105 13.6367C243.513 13.0247 242.768 12.7188 241.869 12.7188C240.971 12.7188 240.219 13.0247 239.613 13.6367C239.008 14.2487 238.705 15.0039 238.705 15.9023C238.705 16.8008 239.008 17.556 239.613 18.168ZM254.77 10.6387H255.15V12.9434H254.77C253.78 12.9434 253.002 13.2233 252.436 13.7832C251.876 14.3366 251.596 15.0885 251.596 16.0391V21H249.35V10.8047H251.596V12.2988C252.41 11.1921 253.467 10.6387 254.77 10.6387ZM256.811 21V6.5957H259.057V21H256.811ZM269.73 6.5957H271.977V21H269.73V19.5352C268.832 20.6745 267.641 21.2441 266.156 21.2441C265.212 21.2441 264.356 21.013 263.588 20.5508C262.82 20.082 262.217 19.4408 261.781 18.627C261.352 17.8132 261.137 16.9049 261.137 15.9023C261.137 14.8997 261.352 13.9915 261.781 13.1777C262.217 12.3639 262.82 11.7259 263.588 11.2637C264.356 10.7949 265.212 10.5605 266.156 10.5605C267.647 10.5605 268.839 11.127 269.73 12.2598V6.5957ZM266.596 19.0762C267.494 19.0762 268.24 18.7734 268.832 18.168C269.431 17.556 269.73 16.8008 269.73 15.9023C269.73 14.9974 269.431 14.2422 268.832 13.6367C268.24 13.0247 267.494 12.7188 266.596 12.7188C265.691 12.7188 264.936 13.0247 264.33 13.6367C263.731 14.2422 263.432 14.9974 263.432 15.9023C263.432 16.8008 263.731 17.556 264.33 18.168C264.936 18.7734 265.691 19.0762 266.596 19.0762Z" fill="white"/>
</svg>
